<svg width="256" height="256" viewBox="0 0 256 256" xmlns="http://www.w3.org/2000/svg" role="img" aria-labelledby="title desc">
  <title id="title">Coco — emoji style avatar</title>
  <desc id="desc">A long-haired Asian girl in Apple-emoji-like style inside a circular badge with a purple-to-rose gradient ring.</desc>

  <defs>
    <!-- 站点调性：紫(#7C3AED) → 玫红(#F43F5E) 渐变描边 -->
    <linearGradient id="ring" x1="0" y1="0" x2="256" y2="256" gradientUnits="userSpaceOnUse">
      <stop offset="0" stop-color="#7C3AED"></stop>
      <stop offset="1" stop-color="#F43F5E"></stop>
    </linearGradient>

    <!-- 深色径向背景（黑紫） -->
    <radialGradient id="bg" cx="50%" cy="45%" r="70%">
      <stop offset="0%" stop-color="#111827"></stop>
      <stop offset="100%" stop-color="#0B1020"></stop>
    </radialGradient>

    <!-- 头发深色渐变（带一点冷紫高光） -->
    <linearGradient id="hair" x1="80" y1="60" x2="176" y2="200" gradientUnits="userSpaceOnUse">
      <stop offset="0" stop-color="#1E2235"></stop>
      <stop offset="1" stop-color="#121526"></stop>
    </linearGradient>
    <linearGradient id="hairSheen" x1="96" y1="84" x2="176" y2="160" gradientUnits="userSpaceOnUse">
      <stop offset="0" stop-color="#2A2F48" stop-opacity=".9"></stop>
      <stop offset="1" stop-color="#2A2F48" stop-opacity="0"></stop>
    </linearGradient>

    <!-- 轻微发光滤镜（给外圈光晕） -->
    <filter id="softGlow" x="-50%" y="-50%" width="200%" height="200%">
      <feGaussianBlur in="SourceGraphic" stdDeviation="4" result="b"></feGaussianBlur>
      <feMerge>
        <feMergeNode in="b"></feMergeNode>
        <feMergeNode in="SourceGraphic"></feMergeNode>
      </feMerge>
    </filter>

    <!-- 阴影 -->
    <filter id="shadow" x="-40%" y="-40%" width="180%" height="180%">
      <feOffset dy="1"></feOffset>
      <feGaussianBlur stdDeviation="1.2" result="g"></feGaussianBlur>
      <feColorMatrix type="matrix" values="
        0 0 0 0 0
        0 0 0 0 0
        0 0 0 0 0
        0 0 0 .35 0" in="g"></feColorMatrix>
      <feMerge>
        <feMergeNode></feMergeNode>
        <feMergeNode in="SourceGraphic"></feMergeNode>
      </feMerge>
    </filter>
  </defs>

  <!-- 圆形徽章底 & 渐变描边 -->
  <circle cx="128" cy="128" r="120" fill="url(#bg)"></circle>
  <circle cx="128" cy="128" r="118" fill="none" stroke="url(#ring)" stroke-width="4" opacity=".95"></circle>
  <circle cx="128" cy="128" r="116" fill="none" stroke="url(#ring)" stroke-width="10" opacity=".12" filter="url(#softGlow)"></circle>

  <!-- 肩膀/衣服（深紫） -->
  <path d="M70 184c12-14 31-24 58-24s46 10 58 24v22c0 6-5 10-11 10H81c-6 0-11-4-11-10v-22z" fill="#3B2A73" opacity=".95"></path>

  <!-- 头发（长发外轮廓） -->
  <path d="M82 104c0-26 20-48 46-48s46 22 46 48v10c0 34-24 60-54 60s-54-26-54-60v-10z" fill="url(#hair)"></path>
  <!-- 左右发束 -->
  <path d="M166 100c10 8 16 16 16 28 0 24-18 44-36 48 22-14 26-46 20-76z" fill="#0F1426"></path>
  <path d="M90 100c-12 6-18 16-18 28 0 26 24 48 44 48-18-14-26-52-26-76z" fill="#0F1426"></path>
  <!-- 发丝高光 -->
  <path d="M104 86c28-10 52 2 60 20-16-6-34-6-60 0 0-8 0-14 0-20z" fill="url(#hairSheen)" opacity=".7"></path>

  <!-- 脸/颈（柔和肤色 + 微阴影） -->
  <g filter="url(#shadow)">
    <ellipse cx="128" cy="110" rx="32" ry="36" fill="#F2C8A8"></ellipse>
    <rect x="116" y="136" width="24" height="14" rx="6" fill="#F2C8A8"></rect>
    <!-- 下巴阴影 -->
    <ellipse cx="128" cy="146" rx="18" ry="6" fill="#DDA88A" opacity=".35"></ellipse>
  </g>

  <!-- 五官（emoji 风：大眼、小鼻、微笑） -->
  <!-- 眼睛 -->
  <g>
    <circle cx="116" cy="110" r="4.2" fill="#1C2030"></circle>
    <circle cx="140" cy="110" r="4.2" fill="#1C2030"></circle>
    <!-- 高光点 -->
    <circle cx="114.8" cy="108.8" r="1.1" fill="#FFFFFF" opacity=".9"></circle>
    <circle cx="138.8" cy="108.8" r="1.1" fill="#FFFFFF" opacity=".9"></circle>
  </g>
  <!-- 鼻子 -->
  <path d="M127 118c2 3 4 3 6 0" stroke="#D69376" stroke-width="1.6" stroke-linecap="round" fill="none" opacity=".8"></path>
  <!-- 微笑 -->
  <path d="M116 126c8 8 16 8 24 0" stroke="#CC7A66" stroke-width="2.2" stroke-linecap="round" fill="none"></path>

  <!-- 腮红 -->
  <circle cx="108" cy="122" r="5.5" fill="#F08BA1" opacity=".35"></circle>
  <circle cx="148" cy="122" r="5.5" fill="#F08BA1" opacity=".35"></circle>

  <!-- 领口（亮紫） -->
  <path d="M112 150c10 4 22 4 32 0v6c0 6-7 10-16 10s-16-4-16-10v-6z" fill="#6F3AF0" opacity=".9"></path>
</svg>
