<svg xmlns="http://www.w3.org/2000/svg" viewBox="0 0 24 24" role="img" aria-label="GitHub logo">
  <path fill="#ffffff" d="M12 0C5.37 0 0 5.37 0 12a12 12 0 008.205 11.387c.6.113.82-.262.82-.583 0-.288-.01-1.05-.015-2.06-3.338.726-4.042-1.61-4.042-1.61-.546-1.387-1.333-1.757-1.333-1.757-1.089-.745.083-.73.083-.73 1.205.085 1.84 1.237 1.84 1.237 1.07 1.834 2.807 1.304 3.492.997.108-.775.418-1.304.76-1.604-2.665-.304-5.467-1.333-5.467-5.931 0-1.31.469-2.381 1.236-3.221-.124-.303-.536-1.524.117-3.176 0 0 1.008-.322 3.3 1.23a11.5 11.5 0 013-.404c1.02.005 2.047.138 3 .404 2.29-1.552 3.297-1.23 3.297-1.23.655 1.653.243 2.874.12 3.176.77.84 1.235 1.911 1.235 3.221 0 4.61-2.807 5.624-5.48 5.921.43.372.814 1.104.814 2.227 0 1.606-.014 2.902-.014 3.293 0 .323.218.7.825.58A12.001 12.001 0 0024 12c0-6.63-5.373-12-12-12z"></path>
</svg>
