<?xml version="1.0" encoding="UTF-8"?>
<svg version="1.1" xmlns="http://www.w3.org/2000/svg" width="145" height="140">
<path d="M0 0 C47.85 0 95.7 0 145 0 C145 46.2 145 92.4 145 140 C97.15 140 49.3 140 0 140 C0 93.8 0 47.6 0 0 Z " fill="#F6FBF9" transform="translate(0,0)"/>
<path d="M0 0 C0.99 0 1.98 0 3 0 C4.20816149 2.41632299 4.11035937 3.95241621 4.10546875 6.6484375 C4.12029297 7.57140625 4.13511719 8.494375 4.15039062 9.4453125 C4.17502936 11.39047593 4.18039595 13.33598368 4.16601562 15.28125 C4.22792449 17.97522376 4.35606662 20.38222174 5 23 C7.708256 25.54961339 9.53123807 26.65710889 13.125 27.49609375 C14.053125 27.46708984 14.053125 27.46708984 15 27.4375 C15.928125 27.43556641 15.928125 27.43556641 16.875 27.43359375 C20.36045576 26.722407 22.13311056 26.25876138 25 24 C26.07491354 19.97773019 26.20789061 15.95920024 26.375 11.8125 C26.44332031 10.68134766 26.51164062 9.55019531 26.58203125 8.38476562 C26.74710873 5.59023978 26.8853206 2.79697366 27 0 C27.99 0 28.98 0 30 0 C30.44730469 1.10859375 30.89460938 2.2171875 31.35546875 3.359375 C31.96540627 4.82322504 32.57612472 6.28674986 33.1875 7.75 C33.47947266 8.47960937 33.77144531 9.20921875 34.07226562 9.9609375 C35.98686989 14.49010888 37.64653375 17.39042945 42 20 C50.11300285 23.00412905 58.33356176 24.7340983 67 24 C67.66 22.02 68.32 20.04 69 18 C69.66 18 70.32 18 71 18 C71.30719041 21.37909451 71.34529892 23.40357459 69.625 26.375 C65.5952124 28.86963042 61.61933486 28.31735888 57 28 C57.515625 28.680625 58.03125 29.36125 58.5625 30.0625 C60.44299626 33.90525323 60.11509388 35.91132242 59 40 C56.9375 42.4375 56.9375 42.4375 55 44 C55.825 44.53625 56.65 45.0725 57.5 45.625 C60 48 60 48 60.375 51.125 C60 54 60 54 59 56 C60.918125 56.185625 60.918125 56.185625 62.875 56.375 C66.75 56.75 66.75 56.75 69 59 C62.10320302 61.52321841 55.22085817 62.15859804 47.9296875 62.55078125 C47.15543427 62.59262039 46.38118103 62.63445953 45.58346558 62.67756653 C35.76772847 63.16347542 25.95079622 63.19687268 16.125 63.1875 C15.14830353 63.18756042 14.17160706 63.18762085 13.16531372 63.18768311 C0.89690523 63.17691179 -11.32156836 62.98802615 -23.5625 62.125 C-24.68962402 62.04660889 -25.81674805 61.96821777 -26.97802734 61.88745117 C-35.09272462 61.21838957 -35.09272462 61.21838957 -39 59 C-36.60236815 56.60236815 -35.66726502 56.65719414 -32.375 56.375 C-31.55773438 56.30023438 -30.74046875 56.22546875 -29.8984375 56.1484375 C-29.27195312 56.09945312 -28.64546875 56.05046875 -28 56 C-28.33 55.34 -28.66 54.68 -29 54 C-29.3125 51.125 -29.3125 51.125 -29 48 C-27 45.625 -27 45.625 -25 44 C-25.474375 43.67 -25.94875 43.34 -26.4375 43 C-28.78930116 39.98969451 -29.15210514 36.72295444 -29 33 C-27.5625 30 -27.5625 30 -26 28 C-26.67546875 28.04640625 -27.3509375 28.0928125 -28.046875 28.140625 C-35.29883139 28.43405676 -35.29883139 28.43405676 -38.625 26.375 C-40.34529892 23.40357459 -40.30719041 21.37909451 -40 18 C-39.34 18 -38.68 18 -38 18 C-37.67 20.31 -37.34 22.62 -37 25 C-20.45402815 23.56154907 -20.45402815 23.56154907 -6 16 C-4.49416506 13.3656705 -3.55627592 10.63033972 -2.625 7.75 C-2.36589844 7.00492187 -2.10679688 6.25984375 -1.83984375 5.4921875 C-1.20828455 3.66768314 -0.60158054 1.83460732 0 0 Z " fill="#A40837" transform="translate(58,59)"/>
<path d="M0 0 C0.80516556 -0.00525696 1.61033112 -0.01051392 2.43989563 -0.01593018 C5.10400739 -0.02914465 7.76752268 -0.02038713 10.43164062 -0.01025391 C12.28104772 -0.01227423 14.13045404 -0.01518532 15.9798584 -0.01895142 C19.85692933 -0.02337673 23.73379299 -0.01693707 27.61083984 -0.00292969 C32.58451586 0.01416233 37.55770625 0.00432225 42.53136444 -0.01364708 C46.35060292 -0.02447934 50.16972597 -0.02104115 53.9889679 -0.0132637 C55.82302406 -0.01126015 57.65709065 -0.0137264 59.49113464 -0.02070236 C62.05296658 -0.02830771 64.61400828 -0.01672592 67.17578125 0 C67.93639359 -0.00607269 68.69700592 -0.01214539 69.48066711 -0.0184021 C74.57589688 0.04333554 74.57589688 0.04333554 77.06677246 1.72103882 C78.635025 4.28147122 78.3370933 6.46005221 78.08789062 9.38818359 C77.75789063 10.04818359 77.42789063 10.70818359 77.08789062 11.38818359 C79.00601563 11.57380859 79.00601563 11.57380859 80.96289062 11.76318359 C84.83789062 12.13818359 84.83789062 12.13818359 87.08789062 14.38818359 C80.19109364 16.911402 73.3087488 17.54678163 66.01757812 17.93896484 C65.24332489 17.98080399 64.46907166 18.02264313 63.6713562 18.06575012 C53.8556191 18.55165901 44.03868685 18.58505627 34.21289062 18.57568359 C33.23619415 18.57574402 32.25949768 18.57580444 31.25320435 18.5758667 C18.98479585 18.56509538 6.76632227 18.37620974 -5.47460938 17.51318359 C-6.6017334 17.43479248 -7.72885742 17.35640137 -8.89013672 17.27563477 C-17.004834 16.60657316 -17.004834 16.60657316 -20.91210938 14.38818359 C-18.51447752 11.99055174 -17.57937439 12.04537774 -14.28710938 11.76318359 C-13.46984375 11.68841797 -12.65257812 11.61365234 -11.81054688 11.53662109 C-11.1840625 11.48763672 -10.55757812 11.43865234 -9.91210938 11.38818359 C-10.24210937 10.72818359 -10.57210938 10.06818359 -10.91210938 9.38818359 C-11.36045054 4.12017491 -11.36045054 4.12017491 -9.89099121 1.72103882 C-6.80840184 -0.35520711 -3.59129059 -0.02867269 0 0 Z " fill="#545455" transform="translate(39.912109375,103.61181640625)"/>
<path d="M0 0 C2.97672584 1.77280561 5.42804007 3.85608015 7 7 C7.14901491 9.10053716 7.22138453 11.20687825 7.25 13.3125 C7.27578125 14.44300781 7.3015625 15.57351562 7.328125 16.73828125 C6.96781276 20.31995651 5.97116371 22.0457751 4 25 C3.28598768 28.19395026 3.28598768 28.19395026 3 31 C3.58007812 31.17015625 4.16015625 31.3403125 4.7578125 31.515625 C16.353862 35.1130793 16.353862 35.1130793 19.30078125 40.28125 C21.12169828 44.20495977 22.71539281 48.13683002 24.0703125 52.24609375 C26.06391113 58.34208479 26.06391113 58.34208479 30.5390625 62.64453125 C33.01625914 63.6319209 35.40071035 64.41452893 38 65 C38 65.66 38 66.32 38 67 C36.43398089 66.79626547 34.87209473 66.56066909 33.3125 66.3125 C32.44238281 66.18488281 31.57226562 66.05726562 30.67578125 65.92578125 C26.98589443 64.64913428 25.44435603 63.051451 23 60 C21.57453661 57.05743882 20.49753239 54.02780618 19.4375 50.9375 C17.16963614 44.38647795 15.61772529 39.9200218 9.203125 36.515625 C7.74132812 35.88914062 7.74132812 35.88914062 6.25 35.25 C5.26515625 34.82203125 4.2803125 34.3940625 3.265625 33.953125 C2.14414063 33.48132812 2.14414063 33.48132812 1 33 C1 32.34 1 31.68 1 31 C-2.98610407 30.12049745 -2.98610407 30.12049745 -7 30 C-9.54182045 32.20754907 -9.54182045 32.20754907 -12 35 C-14.2656919 36.11876083 -16.54528213 37.0329799 -18.9140625 37.91015625 C-24.84424395 41.00850948 -26.21192487 48.55186502 -28.30664062 54.4453125 C-30.30016269 59.8264901 -32.1030146 63.47527084 -37.375 66.25 C-40.35382323 67.10109235 -42.91693905 67.14339818 -46 67 C-46 66.34 -46 65.68 -46 65 C-45.31292969 64.75765625 -44.62585937 64.5153125 -43.91796875 64.265625 C-43.01691406 63.93046875 -42.11585937 63.5953125 -41.1875 63.25 C-40.29417969 62.92515625 -39.40085937 62.6003125 -38.48046875 62.265625 C-32.22334109 59.07301183 -30.92946797 51.78054144 -28.78125 45.5546875 C-26.60124824 39.60387187 -24.31870575 36.75983742 -18.61328125 33.734375 C-17.47439453 33.24710938 -17.47439453 33.24710938 -16.3125 32.75 C-15.54550781 32.41484375 -14.77851562 32.0796875 -13.98828125 31.734375 C-12 31 -12 31 -10 31 C-11.00193437 27.20696275 -11.81024227 24.28463659 -14 21 C-14.37109375 17.6015625 -14.37109375 17.6015625 -14.4375 13.625 C-14.47746094 12.31789063 -14.51742187 11.01078125 -14.55859375 9.6640625 C-13.87412133 5.17430634 -12.48600055 3.79928465 -9 1 C-5.85088521 -0.57455739 -3.47991184 -0.34799118 0 0 Z " fill="#AD234D" transform="translate(77,12)"/>
<path d="M0 0 C0.84079102 -0.00008057 1.68158203 -0.00016113 2.54785156 -0.00024414 C9.63354823 0.16128186 15.38744656 1.78934421 21.890625 4.50390625 C26.99924703 6.04738802 31.41911734 5.05133022 36.25 3 C42.41399006 0.39366171 48.72158837 0.29300758 55.3125 0.25 C56.11042969 0.229375 56.90835938 0.20875 57.73046875 0.1875 C61.25960246 0.16393316 63.55990724 0.16139181 66.70703125 1.859375 C68.1875 3.5 68.1875 3.5 68.75 6 C68.1875 8.5 68.1875 8.5 65.9375 10.25 C60.84479868 12.56486424 56.75971499 12.76534357 51.1875 12.5 C50.1975 11.84 49.2075 11.18 48.1875 10.5 C48.1875 9.84 48.1875 9.18 48.1875 8.5 C50.8275 8.5 53.4675 8.5 56.1875 8.5 C56.1875 7.51 56.1875 6.52 56.1875 5.5 C48.77356237 6.55240216 41.83088965 8.4185804 34.75976562 10.82299805 C27.36544773 13.27525139 23.2656042 12.31341912 16.1875 9.5 C10.49392339 7.37983948 5.24647147 6.05081559 -0.8125 5.5 C-0.8125 6.49 -0.8125 7.48 -0.8125 8.5 C0.38375 8.396875 1.58 8.29375 2.8125 8.1875 C9.68904266 8.13248766 15.89553052 10.99395241 22.1875 13.5 C22.1875 13.83 22.1875 14.16 22.1875 14.5 C14.72605118 14.90211401 7.55442698 14.30003334 0.1875 13.1875 C-1.04963745 13.01093872 -1.04963745 13.01093872 -2.31176758 12.83081055 C-9.85887411 11.61858904 -9.85887411 11.61858904 -12.8125 8.5 C-13.3125 6 -13.3125 6 -12.8125 3.5 C-9.2354257 -0.42628736 -4.95315314 -0.0348192 0 0 Z " fill="#F4F3F2" transform="translate(45.8125,86.5)"/>
<path d="M0 0 C0.33 0 0.66 0 1 0 C1.33 2.31 1.66 4.62 2 7 C1.04287109 7.19916016 1.04287109 7.19916016 0.06640625 7.40234375 C-1.17302734 7.66724609 -1.17302734 7.66724609 -2.4375 7.9375 C-3.26121094 8.11152344 -4.08492187 8.28554687 -4.93359375 8.46484375 C-6.97661204 8.80752994 -6.97661204 8.80752994 -8 10 C-1.17825395 11.40247474 5.59362461 12.20886825 12.5390625 12.55859375 C13.76622231 12.62123917 13.76622231 12.62123917 15.01817322 12.68515015 C24.23381361 13.11426376 33.44660457 13.15067634 42.6706543 13.13037109 C45.56369242 13.12499779 48.45657582 13.13036419 51.34960938 13.13671875 C60.23001457 13.14035122 69.08825485 13.03848122 77.95703125 12.55859375 C78.66944473 12.52037506 79.38185822 12.48215637 80.11585999 12.44277954 C86.15818692 12.07347123 92.07033098 11.19756061 98 10 C95.03 9.01 92.06 8.02 89 7 C89.33 6.01 89.66 5.02 90 4 C92.08450717 4.2831556 94.16758367 4.57685669 96.25 4.875 C97.99023438 5.11863281 97.99023438 5.11863281 99.765625 5.3671875 C102.58193313 5.91820431 104.55217557 6.55796482 107 8 C106.34 8 105.68 8 105 8 C105 8.66 105 9.32 105 10 C105.391875 9.484375 105.78375 8.96875 106.1875 8.4375 C106.785625 7.963125 107.38375 7.48875 108 7 C110.6875 7.3125 110.6875 7.3125 113 8 C113.33 9.32 113.66 10.64 114 12 C99.23886655 16.05525644 84.96127162 17.3247158 69.75 17.625 C68.18357629 17.66335609 66.61716967 17.70241656 65.05078125 17.7421875 C48.92308142 18.13177739 32.81248407 18.09856781 16.6875 17.625 C15.33789089 17.5937387 13.98828151 17.5624887 12.63867188 17.53125 C1.94990264 17.24243228 -8.45499404 16.12036303 -18.8125 13.375 C-19.80894531 13.11460938 -20.80539063 12.85421875 -21.83203125 12.5859375 C-22.54746094 12.39257812 -23.26289063 12.19921875 -24 12 C-24 11.01 -24 10.02 -24 9 C-17.92220991 7.21241468 -11.9326718 5.96692392 -5.6875 4.9375 C-4.61886719 4.76089844 -3.55023437 4.58429688 -2.44921875 4.40234375 C-1.23685547 4.20318359 -1.23685547 4.20318359 0 4 C0 2.68 0 1.36 0 0 Z " fill="#D4D5D4" transform="translate(28,108)"/>
<path d="M0 0 C0.99 0 1.98 0 3 0 C4.38308781 2.76617563 4.11210196 5.01018 4.09765625 8.1015625 C4.09443359 9.31328125 4.09121094 10.525 4.08789062 11.7734375 C4.07532227 13.67996094 4.07532227 13.67996094 4.0625 15.625 C4.05798828 16.90375 4.05347656 18.1825 4.04882812 19.5 C4.03701203 22.66671292 4.02053815 25.83333356 4 29 C2.88757935 28.98428955 2.88757935 28.98428955 1.75268555 28.96826172 C-1.60234193 28.92672804 -4.95731533 28.90068211 -8.3125 28.875 C-10.06336914 28.84986328 -10.06336914 28.84986328 -11.84960938 28.82421875 C-12.96787109 28.81777344 -14.08613281 28.81132813 -15.23828125 28.8046875 C-16.26993408 28.79421387 -17.30158691 28.78374023 -18.36450195 28.77294922 C-21.23187592 28.80702485 -21.23187592 28.80702485 -24 31 C-24.5 33.5 -24.5 33.5 -24 36 C-21.17570533 37.88286311 -20.09244737 38.33188348 -16.90234375 38.81640625 C-16.10481689 38.94039795 -15.30729004 39.06438965 -14.4855957 39.19213867 C-13.64472412 39.31435791 -12.80385254 39.43657715 -11.9375 39.5625 C-10.65782349 39.75646362 -10.65782349 39.75646362 -9.35229492 39.9543457 C-3.5803395 40.81362433 2.18274382 41.52317572 8 42 C8 42.33 8 42.66 8 43 C10.31 43.33 12.62 43.66 15 44 C15 44.33 15 44.66 15 45 C9.67982385 45.09906509 4.36018753 45.17156072 -0.96069336 45.21972656 C-2.7697078 45.23981053 -4.57865757 45.26708341 -6.38745117 45.30175781 C-8.99153621 45.35041892 -11.59476115 45.37300051 -14.19921875 45.390625 C-15.40731453 45.42159271 -15.40731453 45.42159271 -16.63981628 45.45318604 C-20.63449804 45.45477319 -22.53796733 45.29294037 -25.99926758 43.09838867 C-28.64211833 40.32653972 -28.88322944 38.66435258 -29.15234375 34.97265625 C-28.92969455 32.08963451 -27.75301303 30.24385667 -26 28 C-26.67546875 28.04640625 -27.3509375 28.0928125 -28.046875 28.140625 C-35.29883139 28.43405676 -35.29883139 28.43405676 -38.625 26.375 C-40.34529892 23.40357459 -40.30719041 21.37909451 -40 18 C-39.34 18 -38.68 18 -38 18 C-37.67 20.31 -37.34 22.62 -37 25 C-20.45402815 23.56154907 -20.45402815 23.56154907 -6 16 C-4.49416506 13.3656705 -3.55627592 10.63033972 -2.625 7.75 C-2.36589844 7.00492187 -2.10679688 6.25984375 -1.83984375 5.4921875 C-1.20828455 3.66768314 -0.60158054 1.83460732 0 0 Z " fill="#A9153F" transform="translate(58,59)"/>
<path d="M0 0 C2.61362538 0.09824825 5.20058089 0.13630394 7.81445312 0.12939453 C8.62107895 0.13114685 9.42770477 0.13289917 10.2587738 0.13470459 C12.93295423 0.13911646 15.60706886 0.13618744 18.28125 0.1328125 C20.13448092 0.13348573 21.98771176 0.13445592 23.84094238 0.13571167 C27.72811726 0.13718774 31.61526919 0.13503698 35.50244141 0.13037109 C40.49291053 0.12467386 45.48332588 0.12795335 50.47379303 0.13394356 C54.30153816 0.13755161 58.12927048 0.13640946 61.95701599 0.13381577 C63.79748033 0.13314717 65.63794582 0.13397257 67.47840881 0.13629532 C70.04748633 0.13882582 72.61647593 0.1349756 75.18554688 0.12939453 C76.33421486 0.13243088 76.33421486 0.13243088 77.50608826 0.13552856 C81.38062648 0.1934434 81.38062648 0.1934434 85 -1 C87.3828125 -0.44140625 87.3828125 -0.44140625 90.125 0.4375 C91.49011719 0.86869141 91.49011719 0.86869141 92.8828125 1.30859375 C93.58148438 1.53675781 94.28015625 1.76492187 95 2 C94.67 2.66 94.34 3.32 94 4 C77.80922276 8.63025966 58.81608407 7.20342137 42.125 7.1875 C41.14830353 7.18756042 40.17160706 7.18762085 39.16531372 7.18768311 C26.89690523 7.17691179 14.67843164 6.98802615 2.4375 6.125 C1.31037598 6.04660889 0.18325195 5.96821777 -0.97802734 5.88745117 C-9.09272462 5.21838957 -9.09272462 5.21838957 -13 3 C-10.72299943 0.72299943 -9.58686902 0.47898308 -6.5 -0.1875 C-5.7059375 -0.36667969 -4.911875 -0.54585938 -4.09375 -0.73046875 C-2 -1 -2 -1 0 0 Z " fill="#A6A0A1" transform="translate(32,115)"/>
<path d="M0 0 C1.13072182 0.00539291 1.13072182 0.00539291 2.2842865 0.01089478 C3.46956436 0.01067574 3.46956436 0.01067574 4.67878723 0.01045227 C7.30309245 0.0111516 9.92732759 0.01894489 12.55162048 0.02676392 C14.36623089 0.02862803 16.18084179 0.03005196 17.99545288 0.03105164 C22.78111653 0.03487737 27.56675003 0.04470813 32.35240173 0.05575562 C37.23195488 0.06596854 42.11151287 0.070549 46.99107361 0.07559204 C56.57246709 0.08633035 66.15383816 0.10340744 75.73521423 0.12442017 C76.72521423 2.10442017 76.72521423 2.10442017 77.73521423 4.12442017 C75.23503011 6.62460428 73.75664126 6.35955743 70.3460083 6.3732605 C69.2206794 6.36247467 69.2206794 6.36247467 68.07261658 6.35147095 C67.28228531 6.351763 66.49195404 6.35205505 65.67767334 6.35235596 C63.0587221 6.35095978 60.44005343 6.33538522 57.82115173 6.31973267 C56.00797176 6.31600355 54.19478977 6.3131561 52.38160706 6.31115723 C47.60413572 6.30351274 42.82678556 6.28385729 38.04936218 6.26174927 C33.17643371 6.24130837 28.3034857 6.23215927 23.43052673 6.22207642 C13.86536926 6.20061214 4.30030181 6.16646639 -5.26478577 6.12442017 C-5.64697344 4.46827359 -5.97873678 2.79984992 -6.26478577 1.12442017 C-4.53337083 -0.60699477 -2.30728533 0.00464438 0 0 Z " fill="#A49E9E" transform="translate(38.26478576660156,106.87557983398438)"/>
<path d="M0 0 C6.02972712 -0.26452121 10.74203502 0.51070243 16.4375 2.4375 C17.15615234 2.66759766 17.87480469 2.89769531 18.61523438 3.13476562 C23.83537946 4.83537946 23.83537946 4.83537946 25 6 C29.8098398 5.59918002 33.55521226 4.88903479 38 3 C40.6539294 2.27620107 43.32577933 1.64698887 46 1 C46.99 0.67 47.98 0.34 49 0 C50.39439664 -0.06665376 51.79169875 -0.08538199 53.1875 -0.0625 C55.0746875 -0.0315625 55.0746875 -0.0315625 57 0 C57 0.99 57 1.98 57 3 C54.36 3 51.72 3 49 3 C49.990755 4.66641006 49.990755 4.66641006 52 6 C58.13770295 6.62417318 62.42203702 5.59663794 68 3 C68.66 2.01 69.32 1.02 70 0 C69.6875 3.375 69.6875 3.375 69 7 C66.08235 8.9451 64.37462715 9.45276317 61 10 C61 10.33 61 10.66 61 11 C54.28915679 11.7844655 47.69209002 12.15948419 40.9375 12.125 C39.98738037 12.12306641 39.03726074 12.12113281 38.05834961 12.11914062 C23.70120577 12.03766239 9.3477176 11.49434086 -5 11 C-5 10.67 -5 10.34 -5 10 C3.58 9.67 12.16 9.34 21 9 C13.98059573 5.49029786 7.86105171 3.52770949 0 3 C0 2.01 0 1.02 0 0 Z " fill="#A50D38" transform="translate(45,92)"/>
<path d="M0 0 C3.34265205 1.20706879 3.94704566 1.92056849 6 5 C6.67109181 10.04099194 6.72938888 14.54122224 4.4375 19.125 C1.18171189 21.62945239 -0.90264497 22.07188342 -5 22 C-7.80189446 20.23358828 -9.51524911 18.96950178 -11 16 C-11.60587482 10.62502477 -11.93459941 6.40189912 -8.875 1.8125 C-5.50708956 -0.31074789 -3.9088785 -0.58217339 0 0 Z " fill="#E8D0D6" transform="translate(76,15)"/>
<path d="M0 0 C0.99 0.33 1.98 0.66 3 1 C2.2884375 2.051875 2.2884375 2.051875 1.5625 3.125 C-0.08739857 6.16081337 -0.60368464 8.59168786 -1 12 C-0.41992188 12.17015625 0.16015625 12.3403125 0.7578125 12.515625 C12.353862 16.1130793 12.353862 16.1130793 15.30078125 21.28125 C17.12169828 25.20495977 18.71539281 29.13683002 20.0703125 33.24609375 C22.06391113 39.34208479 22.06391113 39.34208479 26.5390625 43.64453125 C29.01625914 44.6319209 31.40071035 45.41452893 34 46 C34 46.66 34 47.32 34 48 C32.43398089 47.79626547 30.87209473 47.56066909 29.3125 47.3125 C28.44238281 47.18488281 27.57226562 47.05726562 26.67578125 46.92578125 C22.98589443 45.64913428 21.44435603 44.051451 19 41 C17.57453661 38.05743882 16.49753239 35.02780618 15.4375 31.9375 C13.16963614 25.38647795 11.61772529 20.9200218 5.203125 17.515625 C4.22859375 17.09796875 3.2540625 16.6803125 2.25 16.25 C1.26515625 15.82203125 0.2803125 15.3940625 -0.734375 14.953125 C-1.48203125 14.63859375 -2.2296875 14.3240625 -3 14 C-3 13.34 -3 12.68 -3 12 C-5.31 11.67 -7.62 11.34 -10 11 C-10.33 10.01 -10.66 9.02 -11 8 C-9.35 7.67 -7.7 7.34 -6 7 C-6 6.34 -6 5.68 -6 5 C-4.34467377 3.98133771 -2.67739862 2.98189187 -1 2 C-0.67 1.34 -0.34 0.68 0 0 Z " fill="#AB1C47" transform="translate(81,31)"/>
<path d="M0 0 C0.66 0.66 1.32 1.32 2 2 C2.66 1.34 3.32 0.68 4 0 C4.24951416 0.63631348 4.49902832 1.27262695 4.75610352 1.92822266 C5.79582866 4.11244714 5.79582866 4.11244714 7.75756836 4.77099609 C8.46534424 4.89555176 9.17312012 5.02010742 9.90234375 5.1484375 C10.70655762 5.29506836 11.51077148 5.44169922 12.33935547 5.59277344 C13.21736816 5.7271582 14.09538086 5.86154297 15 6 C16.38469482 6.21317871 16.38469482 6.21317871 17.79736328 6.43066406 C20.71614638 6.85516061 23.63753441 7.24558686 26.5625 7.625 C27.57119141 7.7590625 28.57988281 7.893125 29.61914062 8.03125 C32.07898648 8.35767504 34.53924407 8.68052108 37 9 C37 9.33 37 9.66 37 10 C39.31 10.33 41.62 10.66 44 11 C44 11.33 44 11.66 44 12 C38.67982385 12.09906509 33.36018753 12.17156072 28.03930664 12.21972656 C26.2302922 12.23981053 24.42134243 12.26708341 22.61254883 12.30175781 C20.00846379 12.35041892 17.40523885 12.37300051 14.80078125 12.390625 C13.59268547 12.42159271 13.59268547 12.42159271 12.36018372 12.45318604 C8.37115797 12.45477094 6.45739646 12.28769316 2.99414062 10.109375 C-0.11567002 6.81985933 0.22084269 4.41685383 0 0 Z " fill="#AF2B4A" transform="translate(29,92)"/>
<path d="M0 0 C6.02972712 -0.26452121 10.74203502 0.51070243 16.4375 2.4375 C17.15615234 2.66759766 17.87480469 2.89769531 18.61523438 3.13476562 C23.83537946 4.83537946 23.83537946 4.83537946 25 6 C28.93089215 5.67242565 32.15111489 5.33955404 35.8125 3.875 C38 3 38 3 41 4 C41.66 4.66 42.32 5.32 43 6 C38.73383684 7.13764351 35.43513689 8 31 8 C31.495 9.485 31.495 9.485 32 11 C28.15707464 12.27953905 24.37849801 12.03266268 20.390625 11.87890625 C19.30041046 11.84348976 19.30041046 11.84348976 18.18817139 11.80735779 C15.87523442 11.73101128 13.56265707 11.64686319 11.25 11.5625 C9.6784028 11.50925021 8.10678824 11.45651002 6.53515625 11.40429688 C2.68987804 11.27543568 -1.15509651 11.13957873 -5 11 C-5 10.67 -5 10.34 -5 10 C3.58 9.67 12.16 9.34 21 9 C13.98059573 5.49029786 7.86105171 3.52770949 0 3 C0 2.01 0 1.02 0 0 Z " fill="#A20533" transform="translate(45,92)"/>
<path d="M0 0 C2.97672584 1.77280561 5.42804007 3.85608015 7 7 C7.07065617 9.04055005 7.08421976 11.08334257 7.0625 13.125 C7.05347656 14.22070312 7.04445313 15.31640625 7.03515625 16.4453125 C7.02355469 17.28835937 7.01195313 18.13140625 7 19 C6.34 19 5.68 19 5 19 C4.93941406 18.24074219 4.87882812 17.48148438 4.81640625 16.69921875 C4.69072266 15.20841797 4.69072266 15.20841797 4.5625 13.6875 C4.48128906 12.70136719 4.40007812 11.71523438 4.31640625 10.69921875 C4.08187441 7.90624401 4.08187441 7.90624401 3 5 C-3.45022877 3.7376191 -3.45022877 3.7376191 -9.625 5.25 C-11.864109 9.72821799 -11.84171905 14.10932208 -11 19 C-8.24417124 22.85816027 -5.49366302 24.58770591 -1 26 C-1 26.33 -1 26.66 -1 27 C-2.98 27 -4.96 27 -7 27 C-7.33 27.99 -7.66 28.98 -8 30 C-8.33 28.35 -8.66 26.7 -9 25 C-9.99 24.67 -10.98 24.34 -12 24 C-14.48833262 20.26750107 -14.36309518 18.08053598 -14.4375 13.625 C-14.47746094 12.31789063 -14.51742187 11.01078125 -14.55859375 9.6640625 C-13.87412133 5.17430634 -12.48600055 3.79928465 -9 1 C-5.85088521 -0.57455739 -3.47991184 -0.34799118 0 0 Z " fill="#AA1A44" transform="translate(77,12)"/>
<path d="M0 0 C1.6875 1.4375 1.6875 1.4375 2.4375 5.0625 C2.56125 6.733125 2.56125 6.733125 2.6875 8.4375 C0.3775 9.0975 -1.9325 9.7575 -4.3125 10.4375 C-4.6425 9.4475 -4.9725 8.4575 -5.3125 7.4375 C-5.9725 7.4375 -6.6325 7.4375 -7.3125 7.4375 C-7.3125 8.0975 -7.3125 8.7575 -7.3125 9.4375 C-8.6325 9.1075 -9.9525 8.7775 -11.3125 8.4375 C-11.6425 9.0975 -11.9725 9.7575 -12.3125 10.4375 C-12.79791424 3.03493291 -12.79791424 3.03493291 -10.6875 0.4375 C-6.94592384 -1.13790049 -3.89829225 -0.94823325 0 0 Z " fill="#F4F4F3" transform="translate(78.3125,15.5625)"/>
<path d="M0 0 C2.52967768 3.79451652 2.22360092 6.81197497 2.125 11.1875 C2.08375 13.765625 2.0425 16.34375 2 19 C-3.61 18.34 -9.22 17.68 -15 17 C-13.05229116 15.70152744 -11.07353188 14.44806155 -9.0625 13.25 C-4.31002626 9.75838664 -1.94038638 5.4977614 0 0 Z " fill="#F0E6E5" transform="translate(58,67)"/>
<path d="M0 0 C2.65135755 1.32567878 2.75169392 2.52350268 3.8125 5.25 C6.0433925 10.44715326 8.57346003 13.86761468 13.8125 16.3125 C14.534375 16.539375 15.25625 16.76625 16 17 C16 17.33 16 17.66 16 18 C10.72 18.66 5.44 19.32 0 20 C0 13.4 0 6.8 0 0 Z " fill="#F3ECEA" transform="translate(87,66)"/>
<path d="M0 0 C0.99 0 1.98 0 3 0 C3.44730469 1.10859375 3.89460938 2.2171875 4.35546875 3.359375 C4.96540627 4.82322504 5.57612472 6.28674986 6.1875 7.75 C6.47947266 8.47960937 6.77144531 9.20921875 7.07226562 9.9609375 C9.00097285 14.52347071 10.74359568 17.20312826 15 20 C15.99 20.66 16.98 21.32 18 22 C17.34 22.66 16.68 23.32 16 24 C8.1400489 20.07002445 5.20074515 15.00186287 2 7 C1.34 7 0.68 7 0 7 C0 4.69 0 2.38 0 0 Z " fill="#AA1B43" transform="translate(85,59)"/>
<path d="M0 0 C0.99 0.33 1.98 0.66 3 1 C3 1.99 3 2.98 3 4 C3.99 5.485 3.99 5.485 5 7 C4.85679006 10.93827328 4.59129356 13.25102816 2.125 16.375 C-1.83763853 19.40525299 -5.35693673 19.10681709 -10.1875 19.0625 C-11.45980469 19.05347656 -12.73210937 19.04445313 -14.04296875 19.03515625 C-15.50669922 19.01775391 -15.50669922 19.01775391 -17 19 C-17 18.67 -17 18.34 -17 18 C-15.02 17.67 -13.04 17.34 -11 17 C-11 16.67 -11 16.34 -11 16 C-10.38511719 15.96261719 -9.77023438 15.92523438 -9.13671875 15.88671875 C-7.92435547 15.78810547 -7.92435547 15.78810547 -6.6875 15.6875 C-5.88699219 15.62949219 -5.08648437 15.57148437 -4.26171875 15.51171875 C-1.57925543 14.90480563 -0.58696363 14.2321554 1 12 C0.74468291 8.42556076 0.13211641 5.39634923 -1 2 C-0.67 1.34 -0.34 0.68 0 0 Z " fill="#A9183F" transform="translate(113,85)"/>
<path d="M0 0 C0.63550781 0.78890625 1.27101562 1.5778125 1.92578125 2.390625 C5.46316053 5.91681398 9.39190634 6.18506791 14.1875 6.75 C15.03159424 6.86577393 15.87568848 6.98154785 16.74536133 7.10083008 C19.16130577 7.42529744 21.57856069 7.7198378 24 8 C25.1446875 8.13277344 26.289375 8.26554687 27.46875 8.40234375 C29.64300267 8.63039037 31.82112795 8.82140393 34 9 C34 9.33 34 9.66 34 10 C5.93764367 10.26172146 5.93764367 10.26172146 1.3125 7.25 C-0.2279312 4.60926079 -0.33436351 3.00927155 0 0 Z " fill="#C46A6C" transform="translate(32,92)"/>
<path d="M0 0 C0.99 0.66 1.98 1.32 3 2 C7.06225125 4.30139637 10.40782392 4.78031117 15 4 C17.48230897 3.17726502 19.64996944 2.17501528 22 1 C22 2.32 22 3.64 22 5 C16.61087177 7.63957301 12.02174803 9.36944062 6.00390625 7.3203125 C4.31031804 6.60471185 2.65114765 5.80872538 1 5 C1.33 5.99 1.66 6.98 2 8 C0.35 7.67 -1.3 7.34 -3 7 C-2.01 6.67 -1.02 6.34 0 6 C0 4.02 0 2.04 0 0 Z " fill="#BF5B63" transform="translate(62,82)"/>
<path d="M0 0 C0.33 0 0.66 0 1 0 C1.33 5.94 1.66 11.88 2 18 C-4.69379604 21.06798985 -8.7969235 22.83129063 -16 21 C-19 19.5625 -19 19.5625 -21 18 C-21 17.34 -21 16.68 -21 16 C-19.989375 16.33 -18.97875 16.66 -17.9375 17 C-11.31926652 18.86429112 -6.67621717 17.90749062 0 16 C0 10.72 0 5.44 0 0 Z " fill="#AF2A4F" transform="translate(84,71)"/>
<path d="M0 0 C1.258125 -0.04125 2.51625 -0.0825 3.8125 -0.125 C4.52019531 -0.14820312 5.22789063 -0.17140625 5.95703125 -0.1953125 C8 0 8 0 11 2 C10.125 5.875 10.125 5.875 9 7 C7.48071962 7.07179964 5.95832518 7.08392007 4.4375 7.0625 C3.61121094 7.05347656 2.78492188 7.04445313 1.93359375 7.03515625 C1.29550781 7.02355469 0.65742188 7.01195313 0 7 C0 6.34 0 5.68 0 5 C-0.66 4.67 -1.32 4.34 -2 4 C-1.34 2.68 -0.68 1.36 0 0 Z " fill="#E4EAE8" transform="translate(21,67)"/>
<path d="M0 0 C0.99 0.33 1.98 0.66 3 1 C2.2884375 2.051875 2.2884375 2.051875 1.5625 3.125 C-0.08739857 6.16081337 -0.60368464 8.59168786 -1 12 C-0.34 12.33 0.32 12.66 1 13 C0.34 13.66 -0.32 14.32 -1 15 C-1.66 14.67 -2.32 14.34 -3 14 C-3 13.34 -3 12.68 -3 12 C-5.31 11.67 -7.62 11.34 -10 11 C-10.33 10.01 -10.66 9.02 -11 8 C-9.35 7.67 -7.7 7.34 -6 7 C-6 6.34 -6 5.68 -6 5 C-4.34467377 3.98133771 -2.67739862 2.98189187 -1 2 C-0.67 1.34 -0.34 0.68 0 0 Z " fill="#AA1B46" transform="translate(81,31)"/>
<path d="M0 0 C0.66 0 1.32 0 2 0 C2 6.93 2 13.86 2 21 C-4.67759888 20.40831402 -11.34001579 19.76426048 -18 19 C-18 18.67 -18 18.34 -18 18 C-15.56242587 17.97301578 -13.12515085 17.95316901 -10.6875 17.9375 C-9.99720703 17.92912109 -9.30691406 17.92074219 -8.59570312 17.91210938 C-5.4516975 17.89692094 -3.00579981 17.99806673 0 19 C0 12.73 0 6.46 0 0 Z " fill="#A10431" transform="translate(60,67)"/>
<path d="M0 0 C6.06907418 -0.27338172 10.77622054 0.53907555 16.5 2.5 C17.22703125 2.73847656 17.9540625 2.97695312 18.703125 3.22265625 C20.47223935 3.80460176 22.23665346 4.40080457 24 5 C23.01 5.99 22.02 6.98 21 8 C20.23816406 7.72285156 19.47632812 7.44570312 18.69140625 7.16015625 C12.37844478 4.94549686 6.67711 3.44514067 0 3 C0 2.01 0 1.02 0 0 Z " fill="#AF294D" transform="translate(45,92)"/>
<path d="M0 0 C0.33 0 0.66 0 1 0 C1.01417969 0.80824219 1.02835937 1.61648437 1.04296875 2.44921875 C1.25682698 9.22315137 1.25682698 9.22315137 4.25 15.125 C6.80402777 16.86638257 9.05702979 18.07506651 12 19 C12 19.33 12 19.66 12 20 C10.02 20 8.04 20 6 20 C5.67 20.99 5.34 21.98 5 23 C4.67 21.35 4.34 19.7 4 18 C3.01 17.67 2.02 17.34 1 17 C-1.40503353 13.3924497 -1.2396541 11.65163611 -1.1875 7.375 C-1.18105469 6.20710938 -1.17460938 5.03921875 -1.16796875 3.8359375 C-1 1 -1 1 0 0 Z " fill="#A30837" transform="translate(64,19)"/>
<path d="M0 0 C1.31260393 2.16193588 2.04775472 3.46327844 1.8203125 6.01953125 C1 8 1 8 -0.85546875 9.08984375 C-1.62503906 9.36957031 -2.39460938 9.64929687 -3.1875 9.9375 C-6.38357865 11.2149136 -8.84848043 12.47499518 -11.4375 14.75 C-14 17 -14 17 -16 17 C-15.62595486 14.48855404 -15.33223398 13.29333829 -13.3984375 11.5859375 C-8.98290637 8.94343817 -5.02297793 7.15109911 0 6 C0 4.02 0 2.04 0 0 Z " fill="#A91743" transform="translate(67,37)"/>
<path d="M0 0 C0.99 0 1.98 0 3 0 C4.35439668 2.70879335 4.06501451 5.00933268 4 8 C3.34 8 2.68 8 2 8 C1.67 8.99 1.34 9.98 1 11 C0.67 10.67 0.34 10.34 0 10 C-0.66 11.65 -1.32 13.3 -2 15 C-2.99 15 -3.98 15 -5 15 C-3.33333333 10 -1.66666667 5 0 0 Z " fill="#AD244A" transform="translate(58,59)"/>
<path d="M0 0 C3.4375 1.875 3.4375 1.875 6 4 C6 4.66 6 5.32 6 6 C5.360625 5.67 4.72125 5.34 4.0625 5 C-1.03934682 3.33409084 -5.96065318 3.33409084 -11.0625 5 C-12.0215625 5.495 -12.0215625 5.495 -13 6 C-12.06896676 3.67241689 -11.34617872 2.25642868 -9.3125 0.75 C-6.00205754 -0.32365701 -3.46551259 -0.3585013 0 0 Z " fill="#6C6E6E" transform="translate(125,62)"/>
<path d="M0 0 C0.33 0 0.66 0 1 0 C0.6875 3.375 0.6875 3.375 0 7 C-3.40431947 9.26954631 -5.16524202 9.36549949 -9.1875 9.625 C-10.27417969 9.69976562 -11.36085938 9.77453125 -12.48046875 9.8515625 C-13.72763672 9.92503906 -13.72763672 9.92503906 -15 10 C-15 9.01 -15 8.02 -15 7 C-14.08476563 6.82984375 -13.16953125 6.6596875 -12.2265625 6.484375 C-11.03804688 6.24203125 -9.84953125 5.9996875 -8.625 5.75 C-7.44164063 5.51796875 -6.25828125 5.2859375 -5.0390625 5.046875 C-1.89813187 4.30713529 -1.89813187 4.30713529 -0.5859375 1.890625 C-0.39257812 1.26671875 -0.19921875 0.6428125 0 0 Z " fill="#C26466" transform="translate(114,92)"/>
<path d="M0 0 C0 0.66 0 1.32 0 2 C-2.06242617 2.02717692 -4.12495703 2.0464758 -6.1875 2.0625 C-7.33605469 2.07410156 -8.48460938 2.08570312 -9.66796875 2.09765625 C-12.59300586 2.01192832 -15.16316291 1.67849023 -18 1 C-12.13238531 -2.91174313 -6.34105052 -3.07444874 0 0 Z " fill="#BF5C60" transform="translate(95,100)"/>
<path d="M0 0 C2.5625 1.4375 2.5625 1.4375 4 3 C4 3.66 4 4.32 4 5 C3.360625 4.67 2.72125 4.34 2.0625 4 C-3.03934682 2.33409084 -7.96065318 2.33409084 -13.0625 4 C-14.0215625 4.495 -14.0215625 4.495 -15 5 C-14.04181947 2.60454867 -13.40880364 1.26039014 -11.203125 -0.14453125 C-7.43704665 -1.60689146 -3.8668894 -0.87980603 0 0 Z " fill="#6B6D6D" transform="translate(31,63)"/>
<path d="M0 0 C0.33 0 0.66 0 1 0 C1 6.93 1 13.86 1 21 C1.66 21 2.32 21 3 21 C3 21.66 3 22.32 3 23 C1.68 23 0.36 23 -1 23 C-1.02887512 19.35418313 -1.04675585 15.70839537 -1.0625 12.0625 C-1.07087891 11.02158203 -1.07925781 9.98066406 -1.08789062 8.90820312 C-1.09272461 7.42416992 -1.09272461 7.42416992 -1.09765625 5.91015625 C-1.10289307 4.99371338 -1.10812988 4.07727051 -1.11352539 3.13305664 C-1 1 -1 1 0 0 Z " fill="#A10431" transform="translate(86,65)"/>
<path d="M0 0 C0 0.66 0 1.32 0 2 C0.66 2.66 1.32 3.32 2 4 C-3.94 4.33 -9.88 4.66 -16 5 C-16 4.01 -16 3.02 -16 2 C-13.70858188 1.66496236 -11.41685737 1.33201958 -9.125 1 C-7.21074219 0.7215625 -7.21074219 0.7215625 -5.2578125 0.4375 C-2 0 -2 0 0 0 Z " fill="#AD2045" transform="translate(105,83)"/>
<path d="M0 0 C3.16115776 1.36983503 3.9927092 1.9890638 6 5 C6.1953125 7.91796875 6.1953125 7.91796875 6.125 11.1875 C6.10695313 12.27417969 6.08890625 13.36085938 6.0703125 14.48046875 C6.03550781 15.72763672 6.03550781 15.72763672 6 17 C5.34 17 4.68 17 4 17 C3.93941406 16.24074219 3.87882812 15.48148438 3.81640625 14.69921875 C3.73261719 13.70535156 3.64882812 12.71148437 3.5625 11.6875 C3.44068359 10.20830078 3.44068359 10.20830078 3.31640625 8.69921875 C3.08187441 5.90624401 3.08187441 5.90624401 2 3 C1.34 3 0.68 3 0 3 C0 2.01 0 1.02 0 0 Z " fill="#A10132" transform="translate(78,14)"/>
<path d="M0 0 C2.86724686 0.57344937 3.8614515 0.8614515 6 3 C6.55743243 8.23986486 6.55743243 8.23986486 4.625 10.875 C3 12 3 12 1 12 C1.66 9.69 2.32 7.38 3 5 C2.01 4.34 1.02 3.68 0 3 C0 2.01 0 1.02 0 0 Z " fill="#575757" transform="translate(112,104)"/>
<path d="M0 0 C0.66 0 1.32 0 2 0 C2.33 2.31 2.66 4.62 3 7 C5.64 7 8.28 7 11 7 C11 7.99 11 8.98 11 10 C4.72413793 10.48275862 4.72413793 10.48275862 1.5625 8.375 C-0.39644605 5.397402 -0.31785906 3.49644963 0 0 Z " fill="#B22D51" transform="translate(18,77)"/>
<path d="M0 0 C1.8871875 0.061875 1.8871875 0.061875 3.8125 0.125 C3.8125 1.115 3.8125 2.105 3.8125 3.125 C1.1725 3.125 -1.4675 3.125 -4.1875 3.125 C-4.5175 4.115 -4.8475 5.105 -5.1875 6.125 C-5.8475 4.805 -6.5075 3.485 -7.1875 2.125 C-4.09861478 0.06574319 -3.47814073 -0.1140374 0 0 Z " fill="#B23153" transform="translate(98.1875,91.875)"/>
<path d="M0 0 C1.98260599 0.42164019 3.96107245 0.86278778 5.9375 1.3125 C7.03964844 1.55613281 8.14179687 1.79976563 9.27734375 2.05078125 C10.62505859 2.52064453 10.62505859 2.52064453 12 3 C12.33 3.99 12.66 4.98 13 6 C7.90551202 5.56826373 4.15487723 5.24599784 0 2 C0 1.34 0 0.68 0 0 Z " fill="#AA1840" transform="translate(63,87)"/>
<path d="M0 0 C0.66 0 1.32 0 2 0 C2.31785906 3.49644963 2.39644605 5.397402 0.4375 8.375 C-2.81682503 10.54455002 -5.17130414 10.29451507 -9 10 C-6.97007853 8.4050617 -5.22034323 7.08813729 -2.8125 6.125 C-0.71108297 5.10190907 -0.71108297 5.10190907 -0.25 2.375 C-0.1675 1.59125 -0.085 0.8075 0 0 Z " fill="#B0294F" transform="translate(127,77)"/>
<path d="M0 0 C1.22589844 0.01353516 1.22589844 0.01353516 2.4765625 0.02734375 C3.41628906 0.04474609 3.41628906 0.04474609 4.375 0.0625 C4.705 1.0525 5.035 2.0425 5.375 3.0625 C4.34439453 3.01029297 4.34439453 3.01029297 3.29296875 2.95703125 C2.39191406 2.92996094 1.49085937 2.90289062 0.5625 2.875 C-0.33082031 2.84019531 -1.22414063 2.80539063 -2.14453125 2.76953125 C-5.04147515 3.11168998 -5.85055028 3.81643573 -7.625 6.0625 C-7.25 3.625 -7.25 3.625 -6.625 1.0625 C-4.21954362 -0.14022819 -2.67503047 -0.03821472 0 0 Z " fill="#DAE0DE" transform="translate(25.625,64.9375)"/>
<path d="M0 0 C1.258125 -0.04125 2.51625 -0.0825 3.8125 -0.125 C4.52019531 -0.14820312 5.22789063 -0.17140625 5.95703125 -0.1953125 C8 0 8 0 11 2 C11 2.66 11 3.32 11 4 C10.31292969 3.91621094 9.62585938 3.83242187 8.91796875 3.74609375 C8.01691406 3.64425781 7.11585937 3.54242188 6.1875 3.4375 C5.29417969 3.33308594 4.40085937 3.22867188 3.48046875 3.12109375 C0.86624428 2.84341291 0.86624428 2.84341291 -2 4 C-1.34 2.68 -0.68 1.36 0 0 Z " fill="#595A5A" transform="translate(117,67)"/>
<path d="M0 0 C1.258125 -0.04125 2.51625 -0.0825 3.8125 -0.125 C4.52019531 -0.14820312 5.22789063 -0.17140625 5.95703125 -0.1953125 C8 0 8 0 11 2 C11 2.66 11 3.32 11 4 C10.31292969 3.91621094 9.62585937 3.83242187 8.91796875 3.74609375 C8.01691406 3.64425781 7.11585937 3.54242188 6.1875 3.4375 C5.29417969 3.33308594 4.40085937 3.22867188 3.48046875 3.12109375 C0.86624428 2.84341291 0.86624428 2.84341291 -2 4 C-1.34 2.68 -0.68 1.36 0 0 Z " fill="#5C5D5D" transform="translate(21,67)"/>
<path d="M0 0 C0.33 1.32 0.66 2.64 1 4 C-3.32734391 6.22923777 -6.28400182 5.92470553 -11 5 C-11 4.67 -11 4.34 -11 4 C-10.37351562 3.79503906 -9.74703125 3.59007813 -9.1015625 3.37890625 C-8.28429687 3.10949219 -7.46703125 2.84007813 -6.625 2.5625 C-5.81289062 2.29566406 -5.00078125 2.02882813 -4.1640625 1.75390625 C-1.98968201 1.04820271 -1.98968201 1.04820271 0 0 Z " fill="#C3696A" transform="translate(83,83)"/>
<path d="M0 0 C3.55780196 0.60990891 6.6828589 1.5783681 10 3 C9.67 3.99 9.34 4.98 9 6 C4.545 4.02 4.545 4.02 0 2 C0 1.34 0 0.68 0 0 Z " fill="#A7123E" transform="translate(81,44)"/>
<path d="M0 0 C0.99 0.33 1.98 0.66 3 1 C3 1.99 3 2.98 3 4 C3.99 5.485 3.99 5.485 5 7 C5.125 9.6875 5.125 9.6875 5 12 C4.7525 11.4225 4.505 10.845 4.25 10.25 C3.07669729 7.85763533 3.07669729 7.85763533 0.8125 6 C0.214375 5.34 -0.38375 4.68 -1 4 C-0.75 1.75 -0.75 1.75 0 0 Z " fill="#AC2048" transform="translate(113,85)"/>
<path d="M0 0 C1.2684375 0.12375 1.2684375 0.12375 2.5625 0.25 C3.2225 1.24 3.8825 2.23 4.5625 3.25 C1.63425348 4.22608217 -0.39363276 4.33226668 -3.4375 4.25 C-3.4375 0.3525641 -3.4375 0.3525641 0 0 Z " fill="#636464" transform="translate(121.4375,70.75)"/>
<path d="M0 0 C0.66 0.66 1.32 1.32 2 2 C-0.97 2.66 -3.94 3.32 -7 4 C-7.33 3.01 -7.66 2.02 -8 1 C-3.375 -1.125 -3.375 -1.125 0 0 Z " fill="#A9173F" transform="translate(86,96)"/>
<path d="M0 0 C1.32168051 2.17688554 2.0131712 3.55217933 1.9375 6.125 C1 8 1 8 -1.5625 9.25 C-2.366875 9.4975 -3.17125 9.745 -4 10 C-4.33 9.01 -4.66 8.02 -5 7 C-3.35 6.67 -1.7 6.34 0 6 C0 4.02 0 2.04 0 0 Z " fill="#AD234C" transform="translate(67,37)"/>
<path d="M0 0 C2.31 0 4.62 0 7 0 C7 1.32 7 2.64 7 4 C4.03 3.505 4.03 3.505 1 3 C0.67 2.01 0.34 1.02 0 0 Z " fill="#C3686C" transform="translate(70,39)"/>
<path d="M0 0 C-7.5 5 -7.5 5 -11 5 C-8.45499142 -0.63537615 -5.97208347 -0.11059414 0 0 Z " fill="#585959" transform="translate(123,63)"/>
<path d="M0 0 C-7.5 5 -7.5 5 -11 5 C-8.45499142 -0.63537615 -5.97208347 -0.11059414 0 0 Z " fill="#585959" transform="translate(27,63)"/>
<path d="M0 0 C0.33 0.99 0.66 1.98 1 3 C-1.64 3 -4.28 3 -7 3 C-7 2.34 -7 1.68 -7 1 C-4.53721199 -0.231394 -2.7204945 -0.07159196 0 0 Z " fill="#5A5B5B" transform="translate(28,71)"/>
<path d="M0 0 C5.75 -0.125 5.75 -0.125 8 1 C7.67 1.99 7.34 2.98 7 4 C6.67 3.67 6.34 3.34 6 3 C2.36805359 2.80850919 2.36805359 2.80850919 -1 4 C-0.67 2.68 -0.34 1.36 0 0 Z " fill="#E5EAE9" transform="translate(118,69)"/>
<path d="M0 0 C5.75 0.875 5.75 0.875 8 2 C8 2.66 8 3.32 8 4 C5.69 3.67 3.38 3.34 1 3 C0.67 2.01 0.34 1.02 0 0 Z " fill="#A81340" transform="translate(107,75)"/>
<path d="M0 0 C0 1.65 0 3.3 0 5 C-1.65 4.67 -3.3 4.34 -5 4 C-4.67 3.01 -4.34 2.02 -4 1 C-2 0 -2 0 0 0 Z " fill="#CD8583" transform="translate(125,77)"/>
<path d="M0 0 C0.99 0.66 1.98 1.32 3 2 C2.34 3.98 1.68 5.96 1 8 C0.01 7.67 -0.98 7.34 -2 7 C-1.34 4.69 -0.68 2.38 0 0 Z " fill="#AF2850" transform="translate(50,53)"/>
<path d="M0 0 C3.375 -0.125 3.375 -0.125 7 0 C7.66 0.66 8.32 1.32 9 2 C8.67 2.66 8.34 3.32 8 4 C5.125 3.6875 5.125 3.6875 2 3 C1.34 2.01 0.68 1.02 0 0 Z " fill="#B4375C" transform="translate(70,12)"/>
<path d="M0 0 C0.66 0 1.32 0 2 0 C2.33 2.97 2.66 5.94 3 9 C0 6 0 6 -0.1875 2.8125 C-0.125625 1.884375 -0.06375 0.95625 0 0 Z " fill="#AB1D47" transform="translate(18,77)"/>
<path d="M0 0 C2.475 0.99 2.475 0.99 5 2 C5 2.66 5 3.32 5 4 C3.35 4.33 1.7 4.66 0 5 C0 3.35 0 1.7 0 0 Z " fill="#CB807F" transform="translate(22,77)"/>
<path d="M0 0 C0.66 0 1.32 0 2 0 C1.34 2.31 0.68 4.62 0 7 C-0.99 7 -1.98 7 -3 7 C-1.125 1.125 -1.125 1.125 0 0 Z " fill="#AA1C44" transform="translate(56,67)"/>
<path d="M0 0 C0.66 0 1.32 0 2 0 C1.67 1.98 1.34 3.96 1 6 C0.01 6.33 -0.98 6.66 -2 7 C-1.125 1.125 -1.125 1.125 0 0 Z " fill="#A81440" transform="translate(48,60)"/>
<path d="M0 0 C2.62187494 1.04874998 3.79371361 1.64931313 5.25 4.125 C5.4975 4.74375 5.745 5.3625 6 6 C4.68 5.67 3.36 5.34 2 5 C2 4.34 2 3.68 2 3 C1.34 3 0.68 3 0 3 C0 2.01 0 1.02 0 0 Z " fill="#A81440" transform="translate(78,14)"/>
<path d="M0 0 C-0.33 0.99 -0.66 1.98 -1 3 C-2.98 3.33 -4.96 3.66 -7 4 C-7 3.34 -7 2.68 -7 2 C-4.35261084 0.5393715 -3.10551666 0 0 0 Z " fill="#A60E3C" transform="translate(63,45)"/>
</svg>
